P1
#other
10 10
00000000000000000000000011110000011000100011000010001000001000100001100
01100110000011110000000000000