P1
#other
10 10
00001111000001100010001100001000100000100010000110001100110000011110000
00000000000000000000000000000