P1
#other
10 10
00011110000011000100011000010001000001000100001100011001100000111100000
00000000000000000000000000000