P1
#other
10 10
00000000000001111000001100010001100001000100000100010000110001100110000
01111000000000000000000000000