P1
#other
10 10
00000000000000000000000111100000110001000110000100010000010001000011000
11001100000111100000000000000