P1
#other
10 10
00110000000100100000010010000001001100000100010000010001000001100100000
01111000000000000000000000000