P1
#other
10 10
00000000000011000000010010000001001000000100110000010001000001000100000
11001000000111100000000000000