P1
#other
10 10
00000000000001100000001001000000100100000010011000001000100000100010000
01100100000011110000000000000