P1
#other
10 10
00000000000000110000000100100000010010000001000100000100010000010001000
00110010000001110000000000000