P1
#other
10 10
00111000000100011000100000110010000001001000001100100000100011000110000
01111000000000000000000000000