P1
#other
10 10
00000000000011100000010001100010000011001000000100100000110010000010001
10001100000111100000000000000