P1
#other
10 10
00000000000000000000001110000001000110001000001100100000010010000011001
00000100011000110000011110000