P1
#other
10 10
00000000000000000000000111000000100011000100000110010000001001000001100
10000010000100011000001111000