P1
#other
10 10
00000000000001110000001000110001000001100100000010010000011001000001000
01000110000011110000000000000