P1
#other
10 10
00011100000010001100010000011001000000100100000110010000010000100011000
00111100000000000000000000000