P1
#other
10 10
00001110000001000110001000001100100000010010000011001000001000010001100
00011110000000000000000000000