P1
#other
10 10
00000000000000111000000100011000100000110010000001001000001100100000100
00100011000001111000000000000