P1
#other
10 10
00000000000011110000011000100001000010000100011000001111000000000000000
00000000000000000000000000000