P1
#other
10 10
00000000000000000000001111110001000001100100000010010000011001100001000
01100110000011110000000000000