P1
#other
10 10
00000000000001110000001001000000100010000100001000001000100000100010000
01000100000100010000011111000