P1
#other
10 10
00111000000010110000010001100001000011000100000100010000010001100001000
01111110000001100000000000000