P1
#other
10 10
00000000000000000000111111000010000110001000000100100000010010000001001
10000110001100010000001111000