P1
#other
10 10
00011111000111000100111000011010000000101000000010100000010001000011000
11111000000000000000000000000